<?xml version="1.0" encoding="utf-8"?>
<!-- Generator: Adobe Illustrator 25.2.1, SVG Export Plug-In . SVG Version: 6.00 Build 0)  -->
<svg version="1.1" id="Layer_1" xmlns="http://www.w3.org/2000/svg" xmlns:xlink="http://www.w3.org/1999/xlink" x="0px" y="0px"
	 viewBox="0 0 2013.7 1421.1" style="enable-background:new 0 0 2013.7 1421.1;" xml:space="preserve">
<style type="text/css">
	.st0{opacity:0.5;}
	.st1{fill:#FFFFFF;}
	.st2{fill:#AEAFAE;}
</style>
<g>
	<g class="st0">
		<path class="st1" d="M1271.7,568.3c196-75.6,278.2-307.9,278.2-307.9c-29.1-93.1-160.4-94.4-160.4-94.4
			c-1.6,60.3-9.3,120.2-22.9,178.9C1331,502.1,1271.7,568.3,1271.7,568.3z"/>
		<path class="st1" d="M669.9,568.3c-196-75.6-278.2-307.9-278.2-307.9c29.1-93.1,160.4-94.4,160.4-94.4
			c1.6,60.3,9.3,120.2,22.9,178.9C610.6,502.1,669.9,568.3,669.9,568.3z"/>
		<path class="st1" d="M1336.1,158.2c-110.8-73.1-617.3-73.1-728.1,0c0,0-24.4,174.5,104.8,247.2L793,264.7
			c14.2,24.5,21.3,52.4,20.5,80.7c52.1-21.8,107.8-33.9,164.2-35.6c70.1,0,159.4,37.1,159.4,37.1c-0.6-28.2,4.3-56.2,14.6-82.5
			l100.1,137C1312.4,335.5,1342.9,247.5,1336.1,158.2z"/>
		<path class="st1" d="M705.4,1308.6c0,0-240.6,71.9-310.1,19.5c0,0-193-368.9-59.8-862.5C335.5,465.6,588.5,1183.7,705.4,1308.6z"
			/>
		<path class="st2" d="M705.4,1308.6c0,0-128.4,38.3-224.7,38.6c0,0,105.8,13.5,15.3-192.4C432,1009.3,350.3,802.4,335.7,465.6
			C335.5,465.6,588.5,1183.7,705.4,1308.6z"/>
		<path class="st1" d="M1250.4,1308.6c0,0,240.6,71.9,310.1,19.5c0,0,192.9-368.9,59.7-862.5
			C1620.5,465.6,1367.4,1183.7,1250.4,1308.6z"/>
		<path class="st2" d="M1250.4,1308.6c0,0,128.3,38.3,224.7,38.6c0,0-105.8,13.5-15.3-192.4c64-145.5,145.7-352.4,160.4-689.2
			C1620.5,465.6,1367.4,1183.7,1250.4,1308.6z"/>
		<path class="st1" d="M716.4,1268.1c77.6,51.2,432.6,51.2,510.3,0c0,0,17-122.2-73.4-173.2l-56,98.5c-10-17.1-14.9-36.7-14.3-56.6
			c-36.5,15.2-75.5,23.6-115.1,24.8c-49.2,0-111.7-26-111.7-26c0.4,19.8-3,39.4-10.2,57.8l-70.3-96
			C733,1143.6,711.6,1205.5,716.4,1268.1z"/>
	</g>
	<path class="st1" d="M214.2,562.9v66.3h167.9v141.4H214.5v161h-146v-510h316.8v141.3L214.2,562.9z"/>
	<path class="st1" d="M699.3,866H552.2l-17.8,65.6H377.7l162.5-510h170.4l162.5,510H716.6L699.3,866z M668,749.5l-42.3-156.6
		l-42.2,156.5L668,749.5z"/>
	<path class="st1" d="M1325.1,421.6v510h-116.6l-160.4-233.2v233.2H902.4v-510H1019l160.4,233.2V421.6H1325.1z"/>
	<path class="st1" d="M1905.7,691.2c0,143.4-99.8,252.1-255,252.1c-161,0-271-115.8-271-266c0-151.5,113-267.3,265.2-267.3
		c96.8,0,179.2,47.4,224.3,118.8l-123.8,70.7c-17.8-27.6-52.5-46.6-98-46.6c-73.5,0-122.3,52.5-122.3,125.3
		c0,60.5,33.5,130.4,128.2,130.4c54.6,0,86-21.8,101.2-53.9h-108.5V630.8h259.7V691.2z"/>
</g>
</svg>
